<svg width="228" height="27" viewBox="0 0 228 27" fill="none" xmlns="http://www.w3.org/2000/svg">
<g filter="url(#filter0_d_2_476)">
<path fill-rule="evenodd" clip-rule="evenodd" d="M38.4117 5.12225C39.9198 5.12225 41.1351 5.50842 42.0576 6.28076C42.9801 7.0531 43.4734 8.10592 43.5376 9.43923H40.7942C40.746 8.83762 40.5054 8.35795 40.0722 8.00024C39.6391 7.64252 39.0535 7.46366 38.3155 7.46366C37.5935 7.46366 37.04 7.60187 36.655 7.87829C36.2699 8.1547 36.0774 8.52055 36.0774 8.97582C36.0774 9.33354 36.2058 9.63435 36.4625 9.87824C36.7192 10.1221 37.032 10.3132 37.401 10.4514C37.77 10.5896 38.3155 10.7644 39.0374 10.9758C40 11.2359 40.7902 11.5002 41.4078 11.7684C42.0255 12.0367 42.559 12.431 43.0082 12.9513C43.4574 13.4717 43.69 14.1627 43.7061 15.0245C43.7061 15.7887 43.4975 16.4716 43.0804 17.0732C42.6632 17.6748 42.0736 18.1464 41.3116 18.4878C40.5495 18.8293 39.6551 19 38.6283 19C37.5855 19 36.651 18.8069 35.8247 18.4268C34.9985 18.0447 34.3447 17.5244 33.8634 16.8659C33.3821 16.2074 33.1254 15.4716 33.0933 14.6586H35.933C35.9812 15.2277 36.2499 15.7033 36.7392 16.0854C37.2285 16.4675 37.8422 16.6586 38.5802 16.6586C39.3503 16.6586 39.9479 16.5082 40.373 16.2074C40.7982 15.9066 41.0108 15.5204 41.0108 15.0489C41.0108 14.5448 40.7741 14.1708 40.3008 13.9269C39.8276 13.683 39.0775 13.4148 38.0508 13.1221C37.0561 12.8457 36.2459 12.5774 35.6202 12.3172C34.9945 12.0571 34.453 11.6587 33.9958 11.1221C33.5385 10.5855 33.3099 9.87824 33.3099 9.00021C33.3099 8.28478 33.5185 7.63032 33.9356 7.03684C34.3527 6.44336 34.9504 5.97589 35.7285 5.63443C36.5066 5.29298 37.401 5.12225 38.4117 5.12225ZM109.018 5.12225C110.27 5.12225 111.385 5.39867 112.363 5.9515C113.342 6.50433 114.104 7.28074 114.649 8.28072C115.195 9.2807 115.468 10.4311 115.468 11.7319C115.468 12.2359 115.436 12.6912 115.371 13.0977H105.24C105.32 14.1708 105.711 15.0326 106.419 15.683C107.125 16.3334 107.991 16.6586 109.018 16.6586C110.494 16.6586 111.537 16.0326 112.147 14.7806H115.107C114.706 16.0163 113.98 17.0285 112.929 17.8171C111.878 18.6057 110.574 19 109.018 19C107.751 19 106.616 18.7114 105.613 18.1342C104.61 17.5569 103.824 16.744 103.255 15.6952C102.685 14.6464 102.4 13.431 102.4 12.0489C102.4 10.6668 102.677 9.45142 103.231 8.40267C103.784 7.35391 104.562 6.54498 105.565 5.97589C106.568 5.4068 107.719 5.12225 109.018 5.12225ZM80.6212 5.12184C81.8886 5.12184 83.0357 5.40639 84.0625 5.97548C85.0893 6.54458 85.8995 7.35757 86.4931 8.41445C87.0867 9.47134 87.3835 10.6827 87.3835 12.0485C87.3835 13.4143 87.0786 14.6257 86.469 15.6826C85.8593 16.7395 85.0291 17.5565 83.9782 18.1338C82.9274 18.711 81.7683 18.9996 80.5008 18.9996C79.2495 18.9996 78.1184 18.711 77.1077 18.1338C76.0969 17.5565 75.3028 16.7435 74.7252 15.6948C74.1476 14.646 73.8589 13.4306 73.8589 12.0485C73.8589 10.6827 74.1557 9.47134 74.7493 8.41445C75.3429 7.35757 76.1531 6.54458 77.1799 5.97548C78.2066 5.40639 79.3537 5.12184 80.6212 5.12184ZM218.513 5.04867C220.101 5.04867 221.369 5.4511 222.315 6.25596C223.262 7.06082 223.783 8.14617 223.88 9.51199H220.655C220.607 8.97542 220.384 8.5486 219.993 8.23153C219.6 7.91446 219.075 7.75593 218.417 7.75593C217.805 7.75593 217.338 7.86975 217.009 8.09739C216.68 8.32502 216.516 8.64209 216.516 9.04859C216.516 9.50386 216.74 9.84938 217.19 10.0851C217.637 10.3209 218.337 10.5608 219.283 10.8046C220.246 11.0485 221.04 11.3006 221.666 11.5607C222.291 11.8209 222.833 12.2233 223.29 12.768C223.747 13.3127 223.982 14.0322 224 14.9265C224 15.707 223.787 16.4062 223.362 17.024C222.937 17.6419 222.327 18.1256 221.533 18.4752C220.739 18.8248 219.813 18.9996 218.754 18.9996C217.663 18.9996 216.684 18.8004 215.818 18.402C214.95 18.0037 214.266 17.463 213.76 16.7801C213.255 16.0972 212.978 15.3411 212.93 14.5119H216.323C216.385 15.0322 216.64 15.4631 217.081 15.8045C217.522 16.146 218.072 16.3167 218.73 16.3167C219.369 16.3167 219.871 16.1866 220.234 15.9265C220.595 15.6663 220.775 15.333 220.775 14.9265C220.775 14.4875 220.553 14.1582 220.113 13.9387C219.672 13.7192 218.97 13.4794 218.008 13.2192C217.013 12.9753 216.197 12.7233 215.565 12.4631C214.931 12.203 214.386 11.8046 213.929 11.2681C213.472 10.7315 213.243 10.0079 213.243 9.09737C213.243 8.34941 213.453 7.6665 213.881 7.04863C214.306 6.43076 214.915 5.94296 215.708 5.58525C216.504 5.22753 217.438 5.04867 218.513 5.04867ZM150.24 5.04867C151.235 5.04867 152.107 5.25192 152.853 5.65842C153.599 6.06491 154.197 6.5771 154.644 7.19497V5.26818H158.039V18.7801H154.644V16.8045C154.211 17.4387 153.615 17.963 152.853 18.3777C152.089 18.7923 151.211 18.9996 150.216 18.9996C149.095 18.9996 148.07 18.7069 147.148 18.1216C146.225 17.5362 145.497 16.711 144.958 15.646C144.422 14.581 144.154 13.3574 144.154 11.9754C144.154 10.6095 144.422 9.39817 144.958 8.34128C145.497 7.2844 146.225 6.47141 147.148 5.90231C148.07 5.33322 149.103 5.04867 150.24 5.04867ZM62.1397 0.731692V7.34131C62.605 6.69091 63.2427 6.1584 64.0529 5.74378C64.8631 5.32915 65.7656 5.12184 66.7603 5.12184C67.9314 5.12184 68.9903 5.40639 69.9369 5.97548C70.8834 6.54458 71.6294 7.3535 72.1749 8.40226C72.7204 9.45102 72.9931 10.6502 72.9931 11.9997C72.9931 13.3493 72.7204 14.5566 72.1749 15.6216C71.6294 16.6866 70.8794 17.5159 69.9248 18.1094C68.9702 18.7029 67.9154 18.9996 66.7603 18.9996C65.7335 18.9996 64.823 18.7963 64.0289 18.3899C63.2347 17.9834 62.605 17.463 62.1397 16.8289V18.7801H59.3963V0.731692H62.1397ZM197.313 5.04827C198.58 5.04827 199.713 5.32468 200.716 5.87752C201.719 6.43035 202.499 7.21489 203.051 8.23112C203.606 9.24736 203.881 10.414 203.881 11.731C203.881 12.2188 203.851 12.6579 203.785 13.0481H194.038C194.118 14.0237 194.455 14.7879 195.049 15.3407C195.642 15.8936 196.372 16.17 197.241 16.17C198.492 16.17 199.381 15.6253 199.912 14.5359H203.544C203.161 15.8367 202.423 16.9057 201.332 17.7431C200.239 18.5825 198.901 18.9992 197.313 18.9992C196.028 18.9992 194.876 18.7106 193.858 18.1334C192.839 17.5561 192.045 16.7391 191.477 15.6822C190.908 14.6253 190.623 13.4058 190.623 12.0237C190.623 10.6274 190.904 9.3998 191.465 8.34088C192.025 7.28399 192.813 6.47303 193.824 5.90191C194.834 5.33484 195.997 5.04827 197.313 5.04827ZM6.90988 1.82943L10.3773 15.634L14.1294 1.82943H17.2118L20.6992 15.5608L24.1906 1.82943H27.1246L22.1692 18.7803H19.0648L15.5513 5.9513L11.8192 18.7803L8.73882 18.8047L4 1.82943H6.90988ZM212.351 5.07347V8.65876H211.46C210.403 8.65876 209.603 8.91079 209.068 9.41484C208.528 9.91889 208.26 10.7969 208.26 12.0489V18.7805H204.892V5.26859H208.26V7.3661C208.693 6.65067 209.258 6.08971 209.956 5.68321C210.656 5.27672 211.452 5.07347 212.351 5.07347ZM95.349 5.12205C96.3918 5.12205 97.3264 5.34155 98.1526 5.78057C98.9788 6.21958 99.6246 6.86998 100.09 7.73175C100.555 8.59352 100.788 9.63414 100.788 10.8536V18.7803H98.0684V11.2683C98.0684 10.065 97.7716 9.14228 97.178 8.50002C96.5844 7.85776 95.7742 7.53663 94.7474 7.53663C93.7206 7.53663 92.9064 7.85776 92.3048 8.50002C91.7032 9.14228 91.4023 10.065 91.4023 11.2683V18.7803H88.6589V5.34155H91.4023V6.8781C91.8516 6.32527 92.4251 5.89439 93.123 5.58545C93.8209 5.27651 94.5629 5.12205 95.349 5.12205ZM166.868 5.07347V8.65876H165.978C164.921 8.65876 164.121 8.91079 163.585 9.41484C163.046 9.91889 162.777 10.7969 162.777 12.0489V18.7805H159.41V5.26859H162.777V7.3661C163.21 6.65067 163.776 6.08971 164.474 5.68321C165.174 5.27672 165.97 5.07347 166.868 5.07347ZM48.4475 0.731895V6.90249C48.9127 6.3334 49.5023 5.89439 50.2163 5.58545C50.9302 5.27651 51.7123 5.12205 52.5626 5.12205C53.5734 5.12205 54.4758 5.34155 55.27 5.78057C56.0641 6.21958 56.6898 6.86998 57.147 7.73175C57.6043 8.59352 57.8329 9.63414 57.8329 10.8536V18.7803H55.1135V11.2683C55.1135 10.065 54.8167 9.14228 54.2231 8.50002C53.6295 7.85776 52.8193 7.53663 51.7925 7.53663C50.7658 7.53663 49.9516 7.85776 49.3499 8.50002C48.7483 9.14228 48.4475 10.065 48.4475 11.2683V18.7803H45.7041V0.731895H48.4475ZM31.1689 5.34135V18.7801H28.4255V5.34135H31.1689ZM138.015 1.75586C139.315 1.75586 140.422 1.98349 141.336 2.43877C142.251 2.89404 142.937 3.52005 143.394 4.31678C143.851 5.11351 144.078 6.01593 144.078 7.02404C144.078 7.93459 143.867 8.78823 143.442 9.58496C143.017 10.3817 142.351 11.024 141.445 11.5117C140.538 11.9995 139.395 12.2434 138.015 12.2434H135.2V18.7799H131.831V1.75586H138.015ZM172.574 1.92679V5.26818H175.558V8.073H172.574V14.6094C172.574 15.0647 172.682 15.394 172.899 15.5972C173.115 15.8005 173.48 15.9021 173.994 15.9021H175.558V18.7801H173.44C170.6 18.7801 169.181 17.3817 169.181 14.5851V8.073H167.592V5.26818H169.181V1.92679H172.574ZM184.412 5.07286C186.001 5.07286 187.286 5.58098 188.263 6.59722C189.241 7.61346 189.731 9.03212 189.731 10.8532V18.7799H186.364V11.3166C186.364 10.2435 186.097 9.41829 185.567 8.84107C185.04 8.26385 184.316 7.97524 183.402 7.97524C182.471 7.97524 181.737 8.26385 181.202 8.84107C180.662 9.41829 180.393 10.2435 180.393 11.3166V18.7799H177.024V5.26798H180.393V6.95087C180.843 6.36551 181.416 5.90617 182.116 5.57285C182.812 5.23952 183.578 5.07286 184.412 5.07286ZM66.1586 7.53642C65.4688 7.53642 64.815 7.71528 64.1973 8.073C63.5796 8.43071 63.0823 8.95103 62.7053 9.63394C62.3283 10.3169 62.1397 11.1217 62.1397 12.0485C62.1397 12.9753 62.3283 13.7843 62.7053 14.4753C63.0823 15.1663 63.5796 15.6907 64.1973 16.0484C64.815 16.4062 65.4688 16.585 66.1586 16.585C66.8645 16.585 67.5263 16.4021 68.144 16.0362C68.7617 15.6704 69.259 15.1379 69.636 14.4387C70.0131 13.7395 70.2016 12.9266 70.2016 11.9997C70.2016 11.0729 70.0131 10.2721 69.636 9.59736C69.259 8.92257 68.7617 8.41039 68.144 8.0608C67.5263 7.71122 66.8645 7.53642 66.1586 7.53642ZM80.573 7.53642C79.8671 7.53642 79.2134 7.70715 78.6117 8.04861C78.0101 8.39006 77.5328 8.89818 77.1799 9.57297C76.8269 10.2477 76.6504 11.0729 76.6504 12.0485C76.6504 13.4956 77.0154 14.6135 77.7454 15.4021C78.4754 16.1907 79.3938 16.585 80.5008 16.585C81.2068 16.585 81.8685 16.4143 82.4862 16.0728C83.1039 15.7314 83.6052 15.2192 83.9903 14.5363C84.3753 13.8534 84.5678 13.0241 84.5678 12.0485C84.5678 11.0729 84.3833 10.2477 84.0144 9.57297C83.6454 8.89818 83.156 8.39006 82.5464 8.04861C81.9367 7.70715 81.2789 7.53642 80.573 7.53642ZM125.093 3.87797V8.60957H129.639V11.5851H125.093V16.3167H121.916V11.5851H117.368V8.60957H121.916V3.87797H125.093ZM151.108 8.04861C150.481 8.04861 149.903 8.20308 149.374 8.51201C148.846 8.82095 148.415 9.27216 148.088 9.86564C147.759 10.4591 147.595 11.1624 147.595 11.9754C147.595 12.7883 147.759 13.4997 148.088 14.1095C148.415 14.7192 148.85 15.1867 149.386 15.5119C149.925 15.8371 150.497 15.9997 151.108 15.9997C151.732 15.9997 152.318 15.8411 152.865 15.5241C153.409 15.207 153.842 14.7517 154.163 14.1582C154.483 13.5648 154.644 12.8534 154.644 12.0241C154.644 11.1949 154.483 10.4835 154.163 9.89003C153.842 9.29655 153.409 8.84127 152.865 8.52421C152.318 8.20714 151.732 8.04861 151.108 8.04861ZM108.898 7.46366C107.951 7.46366 107.141 7.76853 106.467 8.37828C105.793 8.98802 105.392 9.8132 105.264 10.8538H112.604C112.588 9.82946 112.227 9.00834 111.521 8.39047C110.813 7.7726 109.941 7.46366 108.898 7.46366ZM197.215 7.85308C196.38 7.85308 195.679 8.10918 195.109 8.62136C194.539 9.13354 194.191 9.84491 194.064 10.7555H200.391C200.375 9.87743 200.062 9.17419 199.453 8.64575C198.845 8.11731 198.097 7.85308 197.215 7.85308ZM137.871 4.53628H135.2V9.4874H137.871C138.801 9.4874 139.489 9.27196 139.941 8.84107C140.39 8.41019 140.614 7.80451 140.614 7.02404C140.614 5.36554 139.7 4.53628 137.871 4.53628ZM29.8213 0C30.3026 0 30.7117 0.170728 31.0486 0.512184C31.3855 0.85364 31.554 1.2764 31.554 1.78045C31.554 2.2845 31.3855 2.70726 31.0486 3.04872C30.7117 3.39017 30.3026 3.5609 29.8213 3.5609C29.3239 3.5609 28.9068 3.39017 28.5699 3.04872C28.233 2.70726 28.0645 2.2845 28.0645 1.78045C28.0645 1.2764 28.233 0.85364 28.5699 0.512184C28.9068 0.170728 29.3239 0 29.8213 0Z" fill="black"/>
</g>
<defs>
<filter id="filter0_d_2_476" x="0" y="0" width="228" height="27" filterUnits="userSpaceOnUse" color-interpolation-filters="sRGB">
<feFlood flood-opacity="0" result="BackgroundImageFix"/>
<feColorMatrix in="SourceAlpha" type="matrix" values="0 0 0 0 0 0 0 0 0 0 0 0 0 0 0 0 0 0 127 0" result="hardAlpha"/>
<feOffset dy="4"/>
<feGaussianBlur stdDeviation="2"/>
<feComposite in2="hardAlpha" operator="out"/>
<feColorMatrix type="matrix" values="0 0 0 0 0 0 0 0 0 0 0 0 0 0 0 0 0 0 0.25 0"/>
<feBlend mode="normal" in2="BackgroundImageFix" result="effect1_dropShadow_2_476"/>
<feBlend mode="normal" in="SourceGraphic" in2="effect1_dropShadow_2_476" result="shape"/>
</filter>
</defs>
</svg>
